<svg height="512pt" viewBox="0 0 511 512" width="512pt" xmlns="http://www.w3.org/2000/svg"><path d="m301.878906 0c-115.550781 0-209.558594 94.007812-209.558594 209.558594 0 39.96875 11.253907 77.355468 30.753907 109.171875l-122.574219 122.570312 70.699219 70.699219 122.832031-122.832031c31.527344 19 68.429688 29.945312 107.847656 29.945312 115.550782 0 209.558594-94.007812 209.558594-209.558593 0-115.546876-94.007812-209.554688-209.558594-209.554688zm-230.679687 469.597656-28.296875-28.296875 97.878906-97.875c8.550781 10.273438 18.058594 19.71875 28.394531 28.195313zm230.679687-80.464844c-99.019531 0-179.574218-80.558593-179.574218-179.574218 0-99.019532 80.554687-179.574219 179.574218-179.574219 99.015625 0 179.574219 80.554687 179.574219 179.574219 0 99.015625-80.554687 179.574218-179.574219 179.574218zm0 0"/><path d="m453.664062 224.550781v-29.984375h-24.027343c-1.472657-12.609375-4.769531-24.667968-9.628907-35.898437l20.816407-12.019531-14.992188-25.964844-20.847656 12.035156c-7.445313-9.964844-16.300781-18.820312-26.265625-26.265625l12.035156-20.847656-25.964844-14.992188-12.019531 20.816407c-11.234375-4.859376-23.289062-8.160157-35.898437-9.628907v-24.027343h-29.984375v24.027343c-12.609375 1.46875-24.667969 4.769531-35.898438 9.628907l-12.019531-20.816407-25.964844 14.992188 12.039063 20.847656c-9.96875 7.445313-18.824219 16.300781-26.269531 26.265625l-20.847657-12.035156-14.992187 25.964844 20.816406 12.019531c-4.859375 11.230469-8.15625 23.289062-9.628906 35.898437h-24.027344v29.984375h24.027344c1.472656 12.605469 4.769531 24.664063 9.628906 35.898438l-20.816406 12.019531 14.992187 25.964844 20.847657-12.039063c7.445312 9.964844 16.300781 18.820313 26.269531 26.265625l-12.039063 20.851563 25.964844 14.992187 12.019531-20.816406c11.234375 4.859375 23.289063 8.15625 35.898438 9.628906v24.027344h29.984375v-24.027344c12.609375-1.472656 24.667968-4.769531 35.902344-9.628906l12.015624 20.816406 25.964844-14.992187-12.035156-20.851563c9.964844-7.445312 18.820312-16.300781 26.265625-26.265625l20.847656 12.039063 14.992188-25.964844-20.816407-12.019531c4.859376-11.234375 8.15625-23.292969 9.628907-35.898438zm-151.785156 83.660157c-54.398437 0-98.652344-44.257813-98.652344-98.652344 0-54.398438 44.253907-98.652344 98.652344-98.652344 54.398438 0 98.652344 44.253906 98.652344 98.652344 0 54.394531-44.253906 98.652344-98.652344 98.652344zm0 0"/><path d="m295.285156 135.5625c-25.0625 0-45.449218 20.386719-45.449218 45.449219s20.386718 45.449219 45.449218 45.449219 45.449219-20.386719 45.449219-45.449219-20.386719-45.449219-45.449219-45.449219zm0 60.914062c-8.527344 0-15.464844-6.9375-15.464844-15.464843 0-8.53125 6.9375-15.46875 15.464844-15.46875s15.46875 6.9375 15.46875 15.46875c-.003906 8.527343-6.941406 15.464843-15.46875 15.464843zm0 0"/><path d="m243.621094 260.6875 21.203125-21.199219 21.199219 21.203125-21.199219 21.199219zm0 0"/><path d="m334.035156 236.144531 21.199219-21.199219 21.203125 21.203126-21.199219 21.199218zm0 0"/></svg>