<svg id="Layer_3" enable-background="new 0 0 64 64" height="512" viewBox="0 0 64 64" width="512" xmlns="http://www.w3.org/2000/svg"><g><path d="m61.59 19.466c.869-.9 1.41-2.119 1.41-3.466 0-2.757-2.243-5-5-5h-21c-1.654 0-3 1.346-3 3 0 .768.29 1.469.766 2-.476.531-.766 1.232-.766 2 0 1.069.566 2.003 1.41 2.534-.869.9-1.41 2.119-1.41 3.466 0 2.757 2.243 5 5 5h21c1.654 0 3-1.346 3-3 0-.768-.29-1.469-.766-2 .476-.531.766-1.232.766-2 0-1.069-.566-2.003-1.41-2.534zm-24.59-4.466c-.551 0-1-.449-1-1s.449-1 1-1h21c1.654 0 3 1.346 3 3s-1.346 3-3 3h-19-2c-.551 0-1-.449-1-1s.449-1 1-1h20v-2zm23 10c.551 0 1 .449 1 1s-.449 1-1 1h-21c-1.654 0-3-1.346-3-3s1.346-3 3-3h19 2c.551 0 1 .449 1 1s-.449 1-1 1h-20v2z"/><path d="m62 31h-35.11c1.3-1.272 2.11-3.042 2.11-5v-3h1c.552 0 1-.448 1-1v-4c0-.552-.448-1-1-1h-5.04c-.094-2.419-.509-4.808-1.276-7.111l-.684-2.051v-2.838c0-.552-.448-1-1-1h-4c-.552 0-1 .448-1 1v2.838l-.684 2.051c-.768 2.303-1.182 4.692-1.276 7.111h-4.04v-6h3c.552 0 1-.448 1-1v-1c0-.265-.105-.52-.293-.707l-.293-.293.293-.293c.391-.391.391-1.023 0-1.414l-.293-.293.293-.293c.188-.187.293-.442.293-.707v-1c0-.552-.448-1-1-1h-3v-1c0-.552-.448-1-1-1h-3c-.552 0-1 .448-1 1v15h-4c-.552 0-1 .448-1 1v4c0 .552.448 1 1 1h1v3c0 1.958.81 3.728 2.11 5h-3.11c-.552 0-1 .448-1 1v6c0 .552.448 1 1 1h3v24h2v-24h4v24h2v-24h38v24h2v-24h4v24h2v-24h3c.552 0 1-.448 1-1v-6c0-.552-.448-1-1-1zm-41-25v1h-2v-1zm-2.786 4.521.507-1.521h2.559l.507 1.521c.7 2.099 1.1 4.274 1.193 6.479h-5.958c.092-2.205.492-4.379 1.192-6.479zm-5.628-5.521-.293.293c-.391.391-.391 1.023 0 1.414l.293.293-.293.293c-.391.391-.391 1.023 0 1.414l.293.293h-1.586v-4zm-4.586-2h1v14h-1zm-5 16h13 8 5v2h-26zm2 7v-3h22v3c0 2.757-2.243 5-5 5h-12c-2.757 0-5-2.243-5-5zm56 11h-58v-4h7 12 39z"/></g></svg>