<?xml version="1.0"?>
<svg xmlns="http://www.w3.org/2000/svg" viewBox="0 0 512 512" width="512" height="512"><g id="outline"><path d="M479.12256,164.19092l6.40527-6.40528a35.75305,35.75305,0,0,0,8.63721-36.58837l-9.32617-27.97852A66.13087,66.13087,0,0,0,378.1665,64.7041l-53.96289,47.9668L155.51709,152.03125A97.72183,97.72183,0,0,0,80,247.19775v69.17188L18.73193,369.97949A8.00028,8.00028,0,0,0,16,376v24a8.00237,8.00237,0,0,0,1.854,5.12158l40,48a7.99991,7.99991,0,0,0,5.7837,2.87012c.12109.00537.24169.0083.36279.0083a8.00061,8.00061,0,0,0,5.65625-2.34326l16-16A7.99877,7.99877,0,0,0,88,432V404.165l64-44.79981V400a7.99958,7.99958,0,0,0,1.0542,3.96924l32,56A7.99919,7.99919,0,0,0,192,464h24a7.99977,7.99977,0,0,0,8-8V362.6665l7.32275-9.76416A83.53791,83.53791,0,0,0,244.07776,328h63.64075l-18.37476,27.5625A7.996,7.996,0,0,0,288,360v64a7.99877,7.99877,0,0,0,2.34326,5.65674l32,32A7.99877,7.99877,0,0,0,328,464h24a7.99977,7.99977,0,0,0,8-8V387.0415l33.75439-37.97363,29.67774,29.67774-7.32324,43.939a7.99879,7.99879,0,0,0,2.23437,6.97217l24,24A7.99877,7.99877,0,0,0,448,456h16a8.00011,8.00011,0,0,0,7.58936-5.47021l24-72A7.99908,7.99908,0,0,0,496,376V358.88037a125.44915,125.44915,0,0,0-24-73.53076v-96.229ZM75.41211,393.44629A8.001,8.001,0,0,0,72,400v28.686l-7.4624,7.46289L32,397.10352V379.63037l61.26807-53.60986A8.00028,8.00028,0,0,0,96,320V301.24854a99.18836,99.18836,0,0,0,28.16846,28.47851l21.65088,14.4342Zm270.6084-14.76123A8.0016,8.0016,0,0,0,344,384v64H331.31348L304,420.68652V362.42236l30.65625-45.98486A7.996,7.996,0,0,0,336,312V248H320v61.57764L318.38513,312H247.47638A82.21878,82.21878,0,0,0,248,302.87158a90.74821,90.74821,0,0,0-32.74072-69.90234L197.12158,217.854l-10.24316,12.292,18.13769,15.11474A74.79165,74.79165,0,0,1,232,302.87158a67.807,67.807,0,0,1-13.477,40.43115L209.6001,355.2002A7.99948,7.99948,0,0,0,208,360v88H196.64258L168,397.87549V344a7.9994,7.9994,0,0,0-3.56252-6.65625l-31.394-20.9292A83.02386,83.02386,0,0,1,96,247.19727a81.38444,81.38444,0,0,1,63.15283-79.585l170.665-39.82177a7.99826,7.99826,0,0,0,3.49707-1.811L388.79639,76.6626a50.13108,50.13108,0,0,1,80.86377,21.61572l9.32617,27.97852A19.72939,19.72939,0,0,1,480,132.50391,19.95794,19.95794,0,0,1,479.678,136h-28.3645l-13.65674-13.65674-11.31348,11.31348,16,16A7.99877,7.99877,0,0,0,448,152h20.68652l-2.34326,2.34326a8.001,8.001,0,0,0-2.03564,3.459l-5.94922,20.822-13.9209-9.28052-8.875,13.3125,18.1427,12.09521a19.62552,19.62552,0,0,1-36.93958.50586l-17.2749-46.0664-14.98144,5.61816,17.2749,46.06641A35.30255,35.30255,0,0,0,408,211.37183V290.709a47.95067,47.95067,0,0,1-12.12451,31.88916ZM480,358.88037v15.82129L458.23389,440h-6.92041l-18.74561-18.74561,7.32324-43.939a7.99879,7.99879,0,0,0-2.23437-6.97217L404.40247,337.089l3.432-3.861A63.9383,63.9383,0,0,0,424,290.709V222.17456a35.26229,35.26229,0,0,0,32-4.9635V288a7.99834,7.99834,0,0,0,1.60107,4.80127l.6709.894A109.32258,109.32258,0,0,1,480,358.88037Z"/><path d="M402.34326,133.65674l11.31348-11.31348-12.68653-12.68652A3.31388,3.31388,0,0,1,403.31348,104H416V88H403.31348a19.31354,19.31354,0,0,0-13.65674,32.97021Z"/></g></svg>
