<?xml version="1.0"?>
<svg xmlns="http://www.w3.org/2000/svg" viewBox="0 0 512 512" width="512" height="512"><g id="outline"><circle cx="222" cy="160" r="10"/><circle cx="286" cy="160" r="10"/><path d="M474.929,387.992a130.39,130.39,0,0,0-58.545-50.556l-90.524-39.6-14.705-29.41a7.945,7.945,0,0,0-7.391-4.409l-.339-15.732A114.523,114.523,0,0,0,327.285,190l3.35-1.116a31.24,31.24,0,0,0,2.611-58.274A42.5,42.5,0,0,0,344,102.208v-.086l.013-.02,14.933-26.133a8,8,0,0,0-1.289-9.626l-32-32a8,8,0,0,0-3.717-2.1l-64-16a7.985,7.985,0,0,0-3.88,0l-64,16a8,8,0,0,0-3.717,2.1l-32,32a8,8,0,0,0-1.289,9.626L168,102.125v.083a42.5,42.5,0,0,0,10.754,28.406,31.24,31.24,0,0,0,2.611,58.274l3.35,1.116a114.519,114.519,0,0,0,23.858,58.274l-.352,15.734a7.947,7.947,0,0,0-7.376,4.41l-14.705,29.41-90.524,39.6a130.391,130.391,0,0,0-58.545,50.556A138.477,138.477,0,0,0,16,461.462V488a8,8,0,0,0,8,8H488a8,8,0,0,0,8-8V461.462A138.477,138.477,0,0,0,474.929,387.992Zm-50.9-28.545c-.013.183-.028.366-.028.553v58.5c-.354-.25-.7-.5-1.065-.743l-11.956-7.97-23.439-23.44A8,8,0,0,0,381.883,384a26.571,26.571,0,0,0-21.075,10.283,26.958,26.958,0,0,0-2.611,4.044,135.95,135.95,0,0,0-38.453-30.511l6.811-52.216,83.416,36.494A115.716,115.716,0,0,1,424.028,359.447ZM280,480V403.375a88.153,88.153,0,0,1,18.008,7.378L288.976,480Zm32.82-59.1a87.745,87.745,0,0,1,26.419,38.52,16.253,16.253,0,0,0-1.548,2.485,15.9,15.9,0,0,0-.868,12.215l1.96,5.881H305.111Zm40.663,30.8A104.424,104.424,0,0,0,256,384a103.092,103.092,0,0,0-62.677,21,104.978,104.978,0,0,0-34.787,46.7l-15.2-5.066a121.209,121.209,0,0,1,40.868-54.806,120.036,120.036,0,0,1,144.26.509,121.13,121.13,0,0,1,40.189,54.3ZM223.024,480l-9.044-69.335A86.672,86.672,0,0,1,232,403.3V480Zm-48.715-18.1a16.191,16.191,0,0,0-1.558-2.5,88.843,88.843,0,0,1,26.42-38.573L206.889,480H173.217l1.96-5.881A15.9,15.9,0,0,0,174.309,461.9Zm49.944-199.136a59.2,59.2,0,0,0,63.481.008l.223,10.305L256,294.385l-31.977-21.318Zm59.305,92,3.017-6.032,22.45-22.451-4.511,34.584A133.941,133.941,0,0,0,283.558,354.771ZM244.944,352l-3.824-7.65,14.88-24.8,14.88,24.8L267.056,352Zm-19.519-3.261,3.021,6.041a134.079,134.079,0,0,0-20.958,6.107l-4.513-34.6Zm84.841-46.319L281.588,331.1l-14.8-24.673L300.9,283.683ZM203,127.749a26.491,26.491,0,0,1-18.984-24.511l45.994-4.6a31.953,31.953,0,0,0,51.974,0l45.994,4.6A26.491,26.491,0,0,1,309,127.749,183.918,183.918,0,0,1,203,127.749ZM256,96a16,16,0,1,1,16-16A16.019,16.019,0,0,1,256,96Zm72,76.654V145.835a15.238,15.238,0,0,1,0,26.819ZM196.09,47.224,256,32.246l59.91,14.978,26.112,26.112-8.23,14.4-45.948-4.594c.1-1.035.156-2.084.156-3.145a32,32,0,0,0-64,0c0,1.061.055,2.109.156,3.144l-45.948,4.595-8.23-14.4ZM176,159.246a15.26,15.26,0,0,1,8-13.411v26.819A15.221,15.221,0,0,1,176,159.246Zm24-15.709a200.465,200.465,0,0,0,46.669,7.788l-6.56,39.36A8,8,0,0,0,248,200h16a8,8,0,0,0,0-16h-6.556l5.428-32.57A200.38,200.38,0,0,0,312,143.536v33.982a98.472,98.472,0,0,1-22.782,62.923,43.24,43.24,0,0,1-66.437,0A98.476,98.476,0,0,1,200,177.518Zm11.1,140.146,34.112,22.742-14.8,24.673L201.734,302.42ZM102.029,352.094,185.445,315.6l6.813,52.232a135.01,135.01,0,0,0-38.446,30.512,27.014,27.014,0,0,0-2.62-4.061A26.571,26.571,0,0,0,130.117,384a8,8,0,0,0-5.657,2.343l-23.439,23.44-11.956,7.97c-.361.24-.712.493-1.065.743V360c0-.187-.015-.369-.028-.553A115.716,115.716,0,0,1,102.029,352.094ZM32,461.462a122.484,122.484,0,0,1,18.64-64.99A114.787,114.787,0,0,1,72,371.253V437.89a47.489,47.489,0,0,0-2.827,31.318L71.871,480H32ZM88.363,480,84.7,465.327A31.885,31.885,0,0,1,97.94,431.065l12.615-8.409a8.052,8.052,0,0,0,1.219-1L133.033,400.4a10.748,10.748,0,0,1,7.5,12.945,24.444,24.444,0,0,1-6.428,11.353L116.46,442.343a8,8,0,0,0,3.127,13.246L160,469.06,156.351,480ZM248,480V400.367c2.645-.236,5.312-.367,8-.367s5.357.135,8,.378V480Zm107.649,0L352,469.06l40.411-13.471a8,8,0,0,0,3.127-13.246L377.893,424.7a24.444,24.444,0,0,1-6.428-11.353,10.748,10.748,0,0,1,7.5-12.945l21.259,21.259a8.052,8.052,0,0,0,1.219,1l12.614,8.409a31.884,31.884,0,0,1,13.246,34.262L423.637,480ZM480,480H440.129l2.7-10.792a47.537,47.537,0,0,0-3.008-31.715A5.6,5.6,0,0,0,440,436V371.252a114.847,114.847,0,0,1,21.361,25.22A122.492,122.492,0,0,1,480,461.462Z"/><path d="M236.835,223.6a61.8,61.8,0,0,0,38.329,0,8,8,0,0,0-5-15.2,45.671,45.671,0,0,1-28.335,0,8,8,0,0,0-5,15.2Z"/></g></svg>
