<svg id="Capa_1" enable-background="new 0 0 512 512" height="512" viewBox="0 0 512 512" width="512" xmlns="http://www.w3.org/2000/svg"><g><path d="m372.47 164.169c.241-7.471-2.652-14.788-7.938-20.073-5.286-5.286-12.609-8.179-20.072-7.938-21.647.699-42.311 10.386-56.694 26.577l-14.349 16.153-88.172-14.065c-5.336-.851-10.799.92-14.62 4.741l-11.204 11.205c-3.605 3.605-5.379 8.583-4.866 13.657.513 5.073 3.247 9.594 7.5 12.405l53.891 35.616-26.389 29.07-29.446 1.359c-4.22.195-8.189 1.948-11.176 4.935l-11.207 11.207c-3.921 3.921-5.671 9.518-4.681 14.973.99 5.456 4.594 10.082 9.641 12.377l34.084 15.492 15.493 34.084c2.294 5.047 6.921 8.651 12.376 9.64 1.005.182 2.014.271 3.016.271 4.443 0 8.758-1.753 11.957-4.951l11.207-11.207c2.987-2.988 4.74-6.956 4.935-11.177l1.359-29.445 29.062-26.383 35.586 53.846c2.811 4.252 7.333 6.986 12.406 7.5.575.058 1.149.087 1.72.087 4.464 0 8.74-1.757 11.936-4.954l11.202-11.202c3.821-3.819 5.594-9.285 4.742-14.621l-14.055-88.109 16.182-14.374c16.189-14.386 25.876-35.051 26.574-56.696zm-202.151 30.154c-.627-.415-.808-.994-.85-1.406-.042-.413.021-1.017.552-1.548l11.203-11.204c.362-.361.854-.561 1.358-.561.1 0 .2.008.3.023l78.557 12.531-35.372 39.008zm158.106 133.043-11.203 11.203c-.531.531-1.136.592-1.548.552-.413-.041-.992-.223-1.406-.849l-36.843-55.748 39.007-35.372 12.532 78.557c.095.604-.106 1.222-.539 1.657zm7.512-117.711-111.207 100.412c-1.476 1.34-2.358 3.212-2.45 5.204l-1.503 32.555c-.022.479-.221.929-.559 1.268l-11.207 11.207c-.587.586-1.247.615-1.698.531-.451-.082-1.06-.338-1.404-1.093l-16.656-36.643c-.75-1.649-2.072-2.972-3.722-3.723l-36.643-16.656c-.755-.343-1.011-.952-1.093-1.403-.081-.451-.056-1.111.531-1.697l11.207-11.207c.339-.34.79-.539 1.267-.56l32.556-1.502c1.992-.092 3.865-.973 5.205-2.45l100.411-111.206c11.663-13.13 28.418-20.985 45.97-21.551.136-.004.271-.007.407-.007 3.242 0 6.276 1.256 8.582 3.562 2.401 2.402 3.664 5.594 3.555 8.988-.566 17.553-8.42 34.308-21.549 45.971z"/><path d="m445.291 340.749c3.775-8.102 7.353-16.433 10.72-24.998 1.515-3.853-.381-8.204-4.234-9.719-3.851-1.511-8.204.381-9.718 4.234-3.49 8.879-7.214 17.49-11.156 25.841-6.43-1.48-13.123-2.264-19.997-2.264-2.024 0-4.03.074-6.02.208 5.354-10.104 10.498-20.939 15.371-32.578 31.428-75.067 38.154-151.422 33.968-197.849-.475-5.268-3.271-10.011-7.672-13.015-4.445-3.034-9.959-3.914-15.125-2.411-63.798 18.537-127.348 5.331-165.85-34.465-2.946-3.045-6.743-5.412-12.979-5.413-6.232-.001-10.034 2.371-12.979 5.417-6.034 6.241-12.732 11.909-19.908 16.849-3.41 2.346-4.272 7.014-1.925 10.424 2.348 3.41 7.014 4.274 10.425 1.925 7.996-5.504 15.461-11.822 22.186-18.778.445-.459 1.55-1.775 2.149-1.775.793 0 1.812 1.316 2.257 1.775 21.934 22.672 51.223 37.92 84.702 44.094 30.671 5.657 63.903 3.699 96.107-5.656 1.162-.34 2.058.101 2.489.396.404.275 1.095.899 1.193 1.98 4.024 44.635-2.496 118.175-32.865 190.712-5.542 13.236-12.346 27.446-20.604 41.76-34.049 10.008-59.693 39.847-63.504 76.098-17.259 13.848-37.145 25.532-60.021 33.584-3.099 1.09-6.345 1.644-9.646 1.645h-.007c-3.297 0-6.54-.552-9.637-1.642-78.258-27.52-121.596-97.523-144.172-151.402-30.389-72.527-36.931-146.066-32.92-190.702.097-1.081.789-1.704 1.192-1.979.43-.295 1.328-.737 2.49-.398 43.621 12.661 88.472 11.668 126.292-2.797 3.867-1.479 5.802-5.812 4.323-9.679-1.479-3.866-5.811-5.801-9.679-4.323-34.788 13.306-76.254 14.159-116.758 2.401-5.169-1.499-10.682-.62-15.126 2.417-4.399 3.005-7.193 7.75-7.667 13.016-4.173 46.427 2.574 122.781 34.024 197.838 43.027 102.69 106.965 143.554 153.025 159.751 4.7 1.652 9.616 2.491 14.612 2.491h.01c4.999-.001 9.918-.84 14.619-2.496 16.628-5.853 35.587-14.934 55.048-28.967 1.071 10.177 3.858 19.85 8.073 28.721-19.861 14.122-41.459 25.404-64.634 33.711-8.449 3.028-17.755 3.031-26.205.004-42.561-15.244-79.818-40.482-110.733-75.012-27.349-30.547-49.816-68.362-66.778-112.394-27.657-71.807-40.063-161.222-33.184-239.186.157-1.777 1.094-3.374 2.571-4.379.85-.579 2.617-1.45 4.889-.776 18.574 5.493 37.456 8.648 56.12 9.377 62.268 2.425 120.51-18.308 155.807-55.491 1.152-1.214 2.694-1.882 4.344-1.882 1.649-.001 3.192.667 4.343 1.88 33.427 35.191 87.411 55.645 145.901 55.643 3.292 0 6.604-.064 9.922-.195 18.665-.735 37.546-3.895 56.117-9.393 2.274-.674 4.04.196 4.89.775 1.478 1.005 2.416 2.601 2.573 4.378 5.954 67.259-2.37 143.634-22.838 209.545-1.228 3.954.982 8.155 4.936 9.382 3.953 1.231 8.154-.981 9.382-4.935 21.025-67.706 29.574-146.184 23.454-215.313-.555-6.275-3.863-11.907-9.074-15.452-5.179-3.524-11.587-4.529-17.578-2.754-17.38 5.145-35.028 8.102-52.452 8.788-58.012 2.278-111.982-16.703-144.362-50.792-4.01-4.223-9.414-6.548-15.215-6.547-5.802 0-11.205 2.327-15.215 6.552-32.37 34.096-86.336 53.102-144.348 50.83-17.424-.681-35.071-3.633-52.454-8.773-5.992-1.772-12.398-.766-17.577 2.759-5.21 3.547-8.516 9.18-9.069 15.455-7.071 80.132 5.688 172.055 34.13 245.894 17.617 45.734 41.033 85.1 69.598 117.005 32.598 36.409 71.91 63.031 116.846 79.125 5.854 2.096 12.002 3.145 18.153 3.145 6.154 0 12.31-1.05 18.166-3.15 24.056-8.623 46.496-20.276 67.161-34.823 16.131 22.95 42.803 37.979 72.923 37.979 49.118 0 89.079-39.96 89.079-89.079 0-36.936-22.599-68.691-54.695-82.172zm-34.384 156.259c-40.852 0-74.087-33.236-74.087-74.087 0-40.852 33.235-74.087 74.087-74.087s74.087 33.235 74.087 74.087-33.235 74.087-74.087 74.087z"/><path d="m464.041 399.65c-.427-6.518-3.367-12.479-8.277-16.787-10.136-8.888-25.617-7.876-34.51 2.261l-20.578 23.463-.991-1.017c-9.413-9.654-24.926-9.854-34.581-.444-9.656 9.412-9.855 24.924-.444 34.58l19.45 19.956c4.575 4.695 10.958 7.386 17.512 7.386.214 0 .429-.003.644-.009 6.794-.179 13.26-3.212 17.742-8.321l38.016-43.347c4.308-4.909 6.444-11.203 6.017-17.721zm-17.287 7.838-38.016 43.346c-3.531 4.027-10.154 4.201-13.891.366-.006-.006-19.401-19.906-19.45-19.956-5.672-5.82-1.325-16.062 6.772-16.063 5.726-.001 9.776 5.928 13.429 9.676 1.459 1.496 3.487 2.327 5.565 2.26 2.089-.055 4.06-.979 5.438-2.55l25.922-29.557c3.441-3.924 9.432-4.316 13.354-.875 1.9 1.666 3.037 3.973 3.203 6.495.167 2.522-.66 4.957-2.326 6.858z"/></g></svg>