<svg id="Layer_1" height="512" viewBox="0 0 512 512" width="512" xmlns="http://www.w3.org/2000/svg" data-name="Layer 1"><path d="m166.866 183.167c-8.553-1.206-15.467 6.957-16.767 8.6a6 6 0 0 0 9.42 7.434c1.649-2.09 4.673-4.313 5.66-4.16.009 0 .957.467 2.1 3.271 1.09 2.665.941 4 .711 4.329-.64.92-3.636 1.585-5.662 1.519a6 6 0 0 0 -.533 11.988c.128.006.368.014.7.014 2.624 0 11-.5 15.3-6.609 2.032-2.886 3.783-7.967.586-15.784-3.215-7.869-8.037-10.112-11.515-10.602z"/><path d="m422.635 40.294c-19.466 3.214-52.89 15.5-58.046 61.7-1.212 10.854 1.769 24.471 9.809 29.5 10.379 6.484 15.447 7.85 37.786 5.264a8.73 8.73 0 0 0 7.587-8.629 8.634 8.634 0 0 0 -6.99-8.96c-7.659-1.351-13.868-5.938-15.819-11.685-2.313-6.816 1.906-13.379 5.853-17.685 8.954-9.771 17.218-11.717 26.931-11.625 10.815.1 25.635 7.391 31.714 15.6 5.348 7.226 7.292 14.708 5.943 22.873-1.914 11.587-11.637 30.558-47.085 55.13a62.688 62.688 0 0 1 -44.831 10.69c-36.459-5.288-61.752 6.256-80.221 14.684-17.176 7.839-26.608 11.641-36.643 5.478-15.824-9.715-40.578-12.366-53.925-13.082a4.5 4.5 0 0 1 -3.917-2.744c-6.709-15.624-18.325-26.6-33.592-31.746-18.429-6.209-38.041-2.687-48.463 3.215a37.282 37.282 0 0 0 -19.075 35.347 31.728 31.728 0 0 0 1.684 8.171c.365 1-.806 2.494-3.748 5.692-3.817 4.149-9.044 9.83-8.046 18.295 1.059 8.982 5.408 21.134 14.179 25.822 3.359 1.794 8.758 3.22 15.419-.176 3.7-1.889 10.651-2.528 19.562-1.8a13.517 13.517 0 0 1 9.311 4.814 13.309 13.309 0 0 1 3.107 9.842c-1.217 13.279-7.412 25.077-18.413 35.066-12.131 11.017-22.861 17.362-32.327 22.959-13.266 7.845-24.723 14.62-34.763 30.439-11.082 17.457-27.039 28.675-35.565 33.807a54.041 54.041 0 0 0 -11.381 9.193l-10.67 11.291a10.929 10.929 0 0 0 8.317 18.43l10.707-.367a30.347 30.347 0 0 0 20.705-9.364c4.224-4.333 12.271-7.725 20.786-11.311 13.759-5.793 29.354-12.358 38.86-26.243 7.276-10.628 23.174-21.256 38.548-31.534 18.759-12.545 36.477-24.387 43.488-38.345a5.7 5.7 0 0 1 8.074-2.271c9.232 5.745 16.372 16.707 20.649 31.7 5.922 20.758 6.978 42.746 7.826 60.414.816 16.972 1.405 29.239 5.729 36.17-1.218 1.313-6.373 4.457-19.522 6.854a15.342 15.342 0 0 0 -10.932 8.054l-.488.936a15.423 15.423 0 0 0 13.7 22.542h30.367a17.786 17.786 0 0 0 14.456-7.434c4.228-5.928 9.181-15 8.764-24.539l-.136-6.2c.356-11.521 2.279-51 12.093-75.249 5.374-13.279 2.641-26.9-2.747-38.63a214.443 214.443 0 0 0 37.971-4.63c1.772 26.835 12.639 49.322 22.871 62.012a35.546 35.546 0 0 1 6.168 33.391l-3.028 9.327a34.567 34.567 0 0 1 -4.131 2.49l-.882.482a21.324 21.324 0 0 0 -6.585 5.639l-10.9 14.02a8.491 8.491 0 0 0 6.5 13.7l4.855.116 10.841.558c.509.044 1.045.065 1.6.065 6.934 0 17.122-3.375 20.331-10.427.632-1.3 7-14.478 12.525-28.819 9.067-23.515 10.481-35.352 4.884-40.854-6.355-6.245-9.348-19.493-8.657-38.31.074-2.012.189-3.988.332-5.906a57.846 57.846 0 0 0 11.878 13.149c29.249 23.933 67.525 42.589 78.558 47.737a.514.514 0 0 1 .3.464l.344 29.744a9.621 9.621 0 0 1 -1.627 5.473l-9.367 14.032a8.7 8.7 0 0 0 7.231 13.525h19.183a17.267 17.267 0 0 0 17.185-15.351l6.084-54.372a15.576 15.576 0 0 0 -7.491-15.077c-4.877-2.908-12.379-7.541-20.419-13.094a56.717 56.717 0 0 1 -22.521-63.031c6.633-22.07 8.553-53.762-19.14-80.679a263.189 263.189 0 0 0 31.963-25.602c17.249-16.269 29.632-32.854 36.8-49.3 10.77-24.687 7.227-52.236-9.479-73.693-16.627-21.353-42.34-31.497-68.786-27.132zm-59.276 376.086c-5.316 13.474-11.269 25.719-11.328 25.841-.033.069-.056.118-.087.188-.781 1.431-6.371 3.724-10.037 3.386-.083-.007-.167-.014-.251-.018l-9.221-.475 6.666-8.576a9.37 9.37 0 0 1 2.893-2.488l.835-.456c3.861-2.1 8.237-4.483 9.591-8.656l3.246-10a47.51 47.51 0 0 0 -8.24-44.629c-8.911-11.052-19.228-32.406-20.363-57.52 16.073-4.762 27.42-10.884 34.9-16.006a79.154 79.154 0 0 0 1.016 12.966 196.45 196.45 0 0 0 -3.356 28.848c-.848 22.375 3.142 38.223 11.858 47.118.261 1.202.858 7.716-8.122 30.477zm126.541-280.054c-15.427 35.364-54.857 63.407-66.575 71.159a9.912 9.912 0 0 0 -1.229 15.561c20.166 18.537 26.117 42.158 17.688 70.2-8.57 28.516 2.359 59.2 27.193 76.353 8.313 5.742 16.059 10.526 21.093 13.527a3.553 3.553 0 0 1 1.711 3.436l-6.081 54.376a5.278 5.278 0 0 1 -5.259 4.685h-13l5.937-8.887a21.557 21.557 0 0 0 3.646-12.277l-.343-29.743a12.585 12.585 0 0 0 -7.225-11.2c-10.714-5-47.863-23.1-76.033-46.149-30.423-24.896-11.489-72.417-11.295-72.894a6 6 0 0 0 -11.1-4.559 104.247 104.247 0 0 0 -5.59 20.475c-5.458 5.338-31.881 27.64-92.8 28.427a118.7 118.7 0 0 0 -17.285-20.716 6 6 0 0 0 -8.112 8.842c.343.315 34.15 31.829 23.624 57.837-10.272 25.385-12.488 63.97-12.963 79.381l.141 7.091c.282 6.454-3.979 13.451-6.544 17.047a5.763 5.763 0 0 1 -4.687 2.4h-30.367a3.391 3.391 0 0 1 -2.947-1.655 3.356 3.356 0 0 1 -.109-3.343l.488-.936a3.424 3.424 0 0 1 2.441-1.792c24.311-4.431 27.531-11.728 28.589-14.126a11.373 11.373 0 0 0 -1.033-10.881c-2.672-4.267-3.282-16.96-3.927-30.4-.879-18.284-1.971-41.04-8.273-63.129-3.562-12.487-10.938-29.32-25.848-38.6a17.7 17.7 0 0 0 -25.139 7.075c-5.588 11.128-22.794 22.631-39.433 33.755-16.32 10.911-33.2 22.193-41.78 34.731-7.513 10.973-20.783 16.559-33.616 21.962-9.67 4.072-18.8 7.917-24.728 14a18.408 18.408 0 0 1 -12.52 5.741l-8.1.277 8.881-9.395a42.052 42.052 0 0 1 8.848-7.155c9.432-5.677 27.107-18.119 39.509-37.66 8.5-13.386 18.312-19.191 30.739-26.539 9.96-5.89 21.249-12.566 34.287-24.405 16.559-15.037 21.264-31.6 22.295-42.854a25.55 25.55 0 0 0 -23.395-27.712c-11.419-.929-20.164.1-25.988 3.075-2.181 1.112-3.4.767-4.309.283-3.565-1.905-7.043-9.216-7.919-16.644-.335-2.846 1.666-5.185 4.96-8.765 3.852-4.187 9.128-9.921 6.183-17.949a19.971 19.971 0 0 1 -.994-5.063 25.259 25.259 0 0 1 13.03-23.88c8.231-4.659 24.6-7.044 38.72-2.286 12.115 4.082 21 12.53 26.4 25.109a16.43 16.43 0 0 0 14.3 9.991c9.831.528 34.217 2.687 48.288 11.327 15.953 9.793 30.759 3.037 47.905-4.788 18.067-8.245 40.551-18.508 73.516-13.725a74.66 74.66 0 0 0 53.391-12.7c21.47-14.884 47.935-37.9 52.088-63.037 1.88-11.377-.858-22.133-8.138-31.968-8.393-11.341-26.512-20.329-41.249-20.465-10.642-.095-23.2 1.671-35.888 15.517-11.7 12.769-10.267 24.057-8.369 29.649a28.274 28.274 0 0 0 11.919 14.624c-8.891.273-11.495-1.357-16.76-4.647-2.382-1.489-5.22-9.236-4.243-17.988 4.063-36.427 28.383-47.943 48.072-51.193 22.037-3.634 43.482 4.836 57.364 22.666 13.961 17.933 16.932 40.933 7.947 61.526z"/></svg>