<svg id="Capa_1" enable-background="new 0 0 512.013 512.013" height="512" viewBox="0 0 512.013 512.013" width="512" xmlns="http://www.w3.org/2000/svg"><g><path d="m317.514 178.295c-10.263-10.261-26.441-11.318-38.844-3.457l-21.77-21.772c5.972-2.392 12.701-1.471 17.134 2.961 2.928 2.93 7.677 2.929 10.606 0s2.929-7.678-.001-10.606c-10.261-10.262-26.441-11.318-38.843-3.457l-.727-.727c-2.929-2.929-7.677-2.929-10.607 0-2.929 2.929-2.929 7.678 0 10.606l.727.727c-7.86 12.401-6.805 28.581 3.458 38.843 10.223 10.223 26.374 11.359 38.842 3.457l21.771 21.771c-5.972 2.392-12.701 1.473-17.132-2.961-2.93-2.928-7.678-2.928-10.607 0-2.929 2.93-2.929 7.678 0 10.607 10.237 10.235 26.386 11.35 38.843 3.457l.728.728c1.465 1.464 3.384 2.196 5.304 2.196 1.919 0 3.839-.732 5.304-2.196 2.929-2.93 2.929-7.678 0-10.607l-.727-.726c7.859-12.402 6.803-28.582-3.459-38.844zm-68.26 2.512c-4.433-4.433-5.353-11.161-2.961-17.133l20.094 20.094c-5.973 2.392-12.702 1.471-17.133-2.961zm60.614 25.228-20.094-20.094c5.972-2.392 12.701-1.471 17.133 2.961 4.433 4.432 5.353 11.161 2.961 17.133z"/><path d="m469.605 145.998 12.797-12.796c13.273-13.275 13.838-35.526-.046-48.893-4.866-4.686-10.827-7.619-17.067-8.81l12.709-12.708c13.27-13.271 13.27-34.744 0-48.014-13.267-13.268-34.745-13.27-48.014 0h-.001l-12.654 12.654c-1.274-6.582-4.475-12.634-9.321-17.479-13.267-13.268-34.745-13.27-48.014 0l-84.005 84.005c-6.078.138-12.14.878-18.096 2.224 1.811-5.938 3.728-11.923 5.763-17.914 5.416-15.943-1.574-33.615-16.261-41.107-16.304-8.315-35.9-2.23-44.612 13.857l-45.521 84.04c-11.055 20.409-18.312 42.512-21.571 65.694-3.857 27.427-13.454 65.121-37.271 88.936l-77.504 77.506c-7.702 7.7-7.698 20.157-.001 27.856l39.601 39.601c2.93 2.928 7.678 2.928 10.607 0 2.929-2.93 2.929-7.678 0-10.607l-39.601-39.601c-1.834-1.832-1.841-4.803 0-6.642l77.504-77.506c26.749-26.748 37.342-67.76 41.518-97.455 3.01-21.405 9.707-41.807 19.907-60.638l45.521-84.04c4.806-8.871 15.615-12.225 24.606-7.639 8.096 4.129 11.91 13.982 8.874 22.919-3.249 9.565-6.242 19.137-8.912 28.505-9.515 4.303-18.951 10.72-26.8 18.567-35.477 35.477-35.477 93.203 0 128.679 24.628 24.625 60.732 32.768 93.076 22.003 15.562 16.565 37.891 27.346 62.079 28.41-17.22 15.778-35.548 30.418-54.684 43.668-26.972 18.677-51.608 39.108-73.228 60.727l-91.631 91.631c-1.836 1.836-4.807 1.836-6.642-.001l-46.84-46.84c-2.929-2.928-7.677-2.928-10.607 0-2.929 2.93-2.929 7.678 0 10.607l46.84 46.84c7.701 7.699 20.158 7.698 27.856 0l91.631-91.63c20.984-20.984 44.926-40.836 71.159-59.002 24.935-17.266 48.521-36.834 70.162-58.161 10.434-2.343 20.44-6.498 29.464-12.348 3.476-2.253 4.467-6.897 2.213-10.373-2.252-3.476-6.898-4.467-10.373-2.213-28.769 18.654-67.177 15.477-92.569-7.756 17.354-9.45 31.058-24.522 38.862-41.371 4.193-.767 8.217-2.352 11.85-4.658l21.765 21.765c-5.971 2.391-12.7 1.471-17.132-2.961-2.93-2.928-7.678-2.928-10.607 0-2.929 2.93-2.929 7.678 0 10.607 5.774 5.773 13.419 8.636 21.214 8.635 6.059-.001 12.204-1.741 17.628-5.178l.728.728c1.465 1.464 3.385 2.196 5.304 2.196s3.839-.732 5.304-2.196c2.929-2.93 2.929-7.678 0-10.607l-.72-.72c7.768-12.208 6.99-28.396-3.465-38.85-10.429-10.433-26.615-11.251-38.851-3.466l-4.917-4.918c.168-1.732.305-3.47.375-5.22.116-2.899.078-5.786-.078-8.655 1.463 1.457 3.378 2.187 5.292 2.187 1.919 0 3.839-.732 5.304-2.197 2.929-2.929 2.929-7.678 0-10.606-3.702-3.701-8.368-6.33-13.465-7.659-2.554-9.687-6.688-18.736-11.802-26.555 28.237-7.181 58.112 2.411 76.854 24.733.028.034.057.066.085.1 21.134 25.258 23.717 62.108 5.576 90.087-2.254 3.476-1.263 8.12 2.213 10.373s8.12 1.263 10.373-2.213c5.834-8.998 9.972-18.974 12.318-29.375l25.043-25.044c13.205-13.205 13.932-35.502-.051-48.938-4.859-4.669-10.809-7.593-17.041-8.78zm-67.833 66.755c4.222 4.222 5.498 10.818 2.966 17.138l-20.104-20.104c6.35-2.546 12.939-1.234 17.138 2.966zm-31.171-192.195c7.406-7.406 19.393-7.406 26.8 0 7.39 7.389 7.39 19.412 0 26.801l-64.712 64.712c-10.791-8.118-23.433-13.857-37.093-16.509zm-39.807 218.999c-35.124 33.86-93.176 26.279-118.164-16.077-17.199-29.151-13.266-67.371 11.718-92.358 31.223-31.227 82.973-29.488 111.9 4.865 0 0 .001.001.001.001 25.424 30.183 23.233 75.886-5.455 103.569zm67.477-118.253c-18.353-5.319-37.255-4.542-54.062 1.058-.098-.104-.196-.2-.293-.303 3.985-3.985 92.666-92.667 96.674-96.675 7.408-7.406 19.393-7.406 26.802 0 7.407 7.408 7.408 19.393-.001 26.801-6.528 6.526-60.198 60.197-69.12 69.119zm45.069 29.745c-7.995-9.736-18.107-17.954-29.814-23.787l31.889-31.889c7.249-7.25 19.154-7.365 26.537-.258 7.734 7.447 7.278 20.045-.158 27.48zm32.753 42.061-12.219 12.22c-.524-14.298-4.473-28.641-11.753-41.48 7.27-5.169 17.517-4.611 24.135 1.747 7.761 7.455 7.27 20.082-.163 27.513z"/></g></svg>