<svg id="Layer_1" enable-background="new 0 0 512.01 512.01" height="512" viewBox="0 0 512.01 512.01" width="512" xmlns="http://www.w3.org/2000/svg"><g id="XMLID_2113_"><g id="XMLID_2557_"><path id="XMLID_394_" d="m434.387 240.828c0-7.421-3.637-14.382-9.729-18.621-8.414-5.853-15.706-13.047-21.673-21.384l-12.253-17.119c3.04-10.321 4.578-21.03 4.578-31.905 0-36.546-17.46-70.377-46.963-91.583-.133-3.309-.722-6.627-1.79-9.871-3.493-10.61-11.528-18.854-22.045-22.617-8.107-2.9-16.753-2.797-24.61.136-5.037-11.888-14.893-21.172-27.307-25.402-19.738-6.728-41.446.675-52.787 18-.527.805-1.045 1.618-1.567 2.427-32.33 1.255-63.392 13.417-88.003 34.58-26.02 22.374-43.18 53.38-48.32 87.309l-3.024 19.957c-4.194 27.678 2.079 55.728 17.665 78.982 14.492 21.624 35.883 37.371 60.677 44.814 2.634 5.87 7.624 10.425 13.691 12.511v42.943c0 55.598-19.798 109.414-55.748 151.533-2.532 2.968-3.108 7.137-1.475 10.68 1.635 3.543 5.18 5.812 9.081 5.812h187.467c3.752 0 7.188-2.1 8.898-5.438 1.712-3.338 1.411-7.354-.779-10.4-17.838-24.809-24.929-55.077-19.965-85.228l1.809-10.992c2.208-13.414 10.082-25.248 21.601-32.466 11.522-7.22 25.604-9.143 38.637-5.282 13.237 3.923 27.493 1.016 38.138-7.773 10.645-8.788 16.197-22.236 14.853-35.974l-.515-5.266c3.553-2.67 6.269-6.453 7.745-10.986 1.625-4.985 1.579-10.261.025-15.057 2.979-4.015 4.723-8.892 4.899-14.075.151-4.417-.848-8.69-2.816-12.461 7.019-3.954 11.605-11.507 11.605-19.784zm-141.935-165.355c6.654-7.691 10.426-17.24 11.002-27.115l.367-.234c4.191-2.668 9.277-3.237 13.952-1.564 4.669 1.67 8.235 5.33 9.786 10.04 1.55 4.709.854 9.771-1.909 13.889l-118.624 176.745c13.383-63.372 42.544-122.192 85.426-171.761zm-93.937 220.706c3.788 13.003 15.806 22.536 30.016 22.536s26.229-9.532 30.017-22.536c1.618 3.86 2.515 8.095 2.515 12.536 0 17.938-14.594 32.532-32.532 32.532s-32.531-14.594-32.531-32.532c0-4.442.897-8.676 2.515-12.536zm41.283-8.731c0 6.212-5.054 11.266-11.267 11.266-6.212 0-11.266-5.054-11.266-11.266s5.054-11.266 11.266-11.266c6.213 0 11.267 5.054 11.267 11.266zm-70.687-111.567c-5.462-.796-10.542 2.985-11.34 8.451-3.96 27.13-5.154 54.618-3.59 81.919-38.603-15.884-61.964-55.95-55.514-98.519l3.024-19.957c8.286-54.685 50.615-95.885 103.779-103.665-9.223 16.448-17.32 33.565-24.17 51.146-2.006 5.146.541 10.943 5.687 12.948 5.144 2.002 10.942-.54 12.948-5.687 9.7-24.895 22.017-48.816 36.605-71.1 6.338-9.682 18.511-13.804 29.604-10.024 8.219 2.801 14.235 9.216 16.507 17.601 2.261 8.343.32 16.87-5.323 23.394-53.251 61.555-86.399 136.674-95.861 217.236-.176 1.495-1.515 2.649-3.07 2.684-.022 0 .023.001 0 .001-1.609 0-3.015-1.257-3.17-2.891-2.908-30.632-2.122-61.652 2.337-92.197.796-5.465-2.988-10.542-8.453-11.34zm243.343 67.524-11.255 3.283c-3.703 1.08-6.455 4.194-7.071 8.001-.617 3.808 1.012 7.63 4.185 9.824l5.113 3.535c1.982 1.371 2.22 3.31 2.184 4.344-.035 1.034-.403 2.952-2.475 4.184-2.586 1.538-4.343 4.159-4.781 7.136-.439 2.977.485 5.993 2.518 8.212 1.079 1.179 1.173 2.901.787 4.085-.411 1.259-1.084 1.395-1.338 1.446-5.027 1.015-8.473 5.67-7.973 10.775l1.19 12.175c.705 7.21-2.094 13.991-7.681 18.604-5.589 4.614-12.778 6.078-19.724 4.02-18.537-5.494-38.559-2.755-54.938 7.51-16.38 10.264-27.575 27.091-30.715 46.166l-1.809 10.992c-4.813 29.239.019 58.569 13.637 84.313h-148.989c30.567-42.529 47.315-93.837 47.594-146.681 9.549 9.808 22.88 15.917 37.618 15.917 28.967 0 52.532-23.565 52.532-52.532s-23.565-52.532-52.532-52.532c-1.181 0-2.349.053-3.511.13l117.237-174.678c.122-.182.23-.37.349-.553 20.663 17.53 32.704 43.191 32.704 70.719 0 10.414-1.71 20.632-5.082 30.371-1.061 3.065-.569 6.454 1.318 9.092l15.175 21.202c7.301 10.199 16.222 19.001 26.515 26.161.721.501 1.151 1.325 1.151 2.203 0 1.184-.795 2.244-1.933 2.576z"/></g><g id="XMLID_2556_"><path id="XMLID_377_" d="m176.684 151.68c-2.63 0-5.21-1.07-7.07-2.93-1.859-1.86-2.93-4.44-2.93-7.07s1.07-5.21 2.93-7.07 4.44-2.93 7.07-2.93 5.21 1.07 7.07 2.93c1.859 1.86 2.93 4.44 2.93 7.07s-1.07 5.21-2.93 7.07c-1.861 1.86-4.441 2.93-7.07 2.93z"/></g></g></svg>