<?xml version="1.0"?>
<svg xmlns="http://www.w3.org/2000/svg" viewBox="0 0 512 512" width="512" height="512"><g id="Outline"><path d="M495.929,470.933,442.691,75.46a40.057,40.057,0,0,0-28.275-33.016l-52.283-15.5-31.6-10.537a7.994,7.994,0,0,0-6.379.575c-.09.05-.173.11-.262.162l0-.008-14.075,8.445A101.171,101.171,0,0,1,257.767,40a101.655,101.655,0,0,1-45.236-10.679L187.578,16.845l0,.009a7.994,7.994,0,0,0-6.1-.444l-28.36,9.45a8,8,0,0,0-5.258,9.418l1.66,7.075a111.536,111.536,0,0,0,39.161,61.638,111.08,111.08,0,0,0,176-57.346l.579-2.083,44.613,13.222a24.034,24.034,0,0,1,16.965,19.81l46.514,345.523L442.47,433.41l5.06,15.18,27.991-9.33,3.627,26.949-13.838,3.954-2.456-12.684-15.708,3.042,2.72,14.054-11.819,3.377L384,223.159V120H368v57.9l-25.854-31.025a8,8,0,0,0-11.8-.536L296,180.687l-34.343-34.344a8,8,0,0,0-11.314,0L216,180.687l-34.343-34.344a8,8,0,0,0-11.8.536L144,177.9V120H128V223.159L84.294,429.2l-23.315-5.953-3.958,15.5,23.95,6.115-7.018,33.086-13.547-3.87,5.851-17.552-15.18-5.06-6.071,18.212-12.154-3.473L85.17,77.558A24.041,24.041,0,0,1,102.1,57.76l33.855-10.093-4.57-15.334L97.527,42.427a40.069,40.069,0,0,0-28.215,33L16.071,470.933a8,8,0,0,0,5.732,8.759l56,16a8,8,0,0,0,10.023-6.032L128,300.268V432a8.087,8.087,0,0,0,.08,1.132l8,56A8,8,0,0,0,144,496H368a8,8,0,0,0,7.92-6.869l5.714-40-15.84-2.262L361.062,480H344V448H328v32H312V448H296v32H280V448H264v32H248V448H232v32H216V448H200v32H184V448H168v32H150.938L144,431.432V426.9l32.537-39.044L204.686,416H160v16H384V300.268L424.174,489.66a8,8,0,0,0,10.024,6.032l56-16A8,8,0,0,0,495.929,470.933ZM349.984,39.764l-.722,2.595a94.5,94.5,0,0,1-3.283,9.683L330.6,44.356a80.53,80.53,0,0,0,2.737-8.744l.323-1.291ZM248,95.575v15.908a95.516,95.516,0,0,1-20.568-4.454L234.451,93A79.97,79.97,0,0,0,248,95.575Zm16,.011a79.546,79.546,0,0,0,18.616-4.14l4,15.985A94.366,94.366,0,0,1,264,111.767Zm33.361-11.127a79.614,79.614,0,0,0,9.233-6.551l11.938,11.938a95.865,95.865,0,0,1-16.991,11.335ZM257.767,56A117.184,117.184,0,0,0,314.6,41.289a63.606,63.606,0,0,1-32.716,33.24q-1.192.53-2.411,1.012-2.434.963-4.959,1.728a63.724,63.724,0,0,1-77.956-38.044l8.813,4.407A117.742,117.742,0,0,0,257.767,56ZM178.658,35.609a78.88,78.88,0,0,0,2.746,8.74l-12.63,6.318A94.169,94.169,0,0,1,165.1,38.731l13.238-4.411Zm-2.95,29.481,12.822-6.414a80.391,80.391,0,0,0,5.624,7.855l-10.3,10.3A95.929,95.929,0,0,1,175.708,65.09Zm19.234,23.283,10.486-10.487c.5.412,1,.831,1.508,1.23a79.184,79.184,0,0,0,12.563,8l-6.782,13.56a94.663,94.663,0,0,1-14.11-9.233C197.355,90.457,196.139,89.424,194.942,88.373ZM329.916,78.6,317.878,66.563a79.37,79.37,0,0,0,5.629-7.866l15.315,7.656A95.018,95.018,0,0,1,329.916,78.6ZM176.537,163.852l33.806,33.805a8,8,0,0,0,11.314,0L256,163.313l34.343,34.344a8,8,0,0,0,11.314,0l33.806-33.805L368,202.9V233.9l-25.854-31.025a8,8,0,0,0-11.8-.536L296,236.687l-34.343-34.344a8,8,0,0,0-11.314,0L216,236.687l-34.343-34.344a8,8,0,0,0-11.8.536L144,233.9V202.9ZM144,314.9l32.537-39.044,33.806,33.805a8,8,0,0,0,11.314,0L256,275.313l34.343,34.344a8,8,0,0,0,11.314,0l33.806-33.805L368,314.9V345.9l-25.854-31.025a8,8,0,0,0-11.8-.536L296,348.687l-34.343-34.344a8,8,0,0,0-11.314,0L216,348.687l-34.343-34.344a8,8,0,0,0-11.8.536L144,345.9Zm198.146-56.017a8,8,0,0,0-11.8-.536L296,292.687l-34.343-34.344a8,8,0,0,0-11.314,0L216,292.687l-34.343-34.344a8,8,0,0,0-11.8.536L144,289.9V258.9l32.537-39.044,33.806,33.805a8,8,0,0,0,11.314,0L256,219.313l34.343,34.344a8,8,0,0,0,11.314,0l33.806-33.805L368,258.9V289.9ZM175.638,368.008a8,8,0,0,0-5.784,2.871L144,401.9V370.9l32.537-39.044,33.806,33.805a8,8,0,0,0,11.314,0L256,331.313l34.343,34.344a8,8,0,0,0,11.314,0l33.806-33.805L368,370.9V401.9l-25.854-31.025a8,8,0,0,0-11.8-.536L296,404.687l-34.343-34.344a8,8,0,0,0-11.314,0L216,404.687l-34.343-34.344A8.05,8.05,0,0,0,175.638,368.008ZM358.92,416H307.314l28.149-28.148ZM256,387.313,284.686,416H227.314Z"/></g></svg>
