<?xml version="1.0" encoding="iso-8859-1"?>
<!-- Generator: Adobe Illustrator 19.0.0, SVG Export Plug-In . SVG Version: 6.00 Build 0)  -->
<svg version="1.1" id="Capa_1" xmlns="http://www.w3.org/2000/svg" xmlns:xlink="http://www.w3.org/1999/xlink" x="0px" y="0px"
	 viewBox="0 0 512 512" style="enable-background:new 0 0 512 512;" xml:space="preserve">
<g>
	<g>
		<path d="M473.145,38.853c-2.931-2.929-7.682-2.929-10.614,0l-49.197,49.197c-2.93,2.931-2.93,7.682,0,10.614
			c1.466,1.466,3.387,2.198,5.307,2.198c1.92,0,3.841-0.733,5.307-2.198l49.197-49.197
			C476.075,46.536,476.075,41.784,473.145,38.853z"/>
	</g>
</g>
<g>
	<g>
		<path d="M342.05,84.752l-45.898-45.898c-2.931-2.929-7.682-2.929-10.614,0c-2.93,2.931-2.93,7.682,0,10.614l45.898,45.898
			c1.466,1.465,3.387,2.198,5.307,2.198c1.92,0,3.841-0.733,5.307-2.198C344.98,92.435,344.98,87.684,342.05,84.752z"/>
	</g>
</g>
<g>
	<g>
		<path d="M379.342,0c-4.145,0-7.504,3.359-7.504,7.504v68.25c-0.001,4.145,3.359,7.504,7.504,7.504
			c4.145,0,7.504-3.359,7.504-7.504V7.505C386.846,3.359,383.487,0,379.342,0z"/>
	</g>
</g>
<g>
	<g>
		<path d="M473.145,215.847l-45.76-45.76c-2.931-2.929-7.682-2.929-10.614,0c-2.93,2.931-2.93,7.682,0,10.614l45.76,45.76
			c1.466,1.465,3.387,2.198,5.307,2.198c1.92,0,3.841-0.733,5.307-2.198C476.075,223.531,476.075,218.779,473.145,215.847z"/>
	</g>
</g>
<g>
	<g>
		<path d="M504.496,125.154h-68.253c-4.145,0-7.504,3.359-7.504,7.504c0,4.145,3.359,7.504,7.504,7.504h68.253
			c4.145,0,7.504-3.359,7.504-7.504C512,128.513,508.641,125.154,504.496,125.154z"/>
	</g>
</g>
<g>
	<g>
		<path d="M423.635,232.607L279.392,88.365c-5.918-5.917-15.543-5.913-21.459,0l-27.924,27.924c-0.014,0.014-0.026,0.031-0.04,0.045
			c-0.19,0.193-0.366,0.394-0.53,0.601c-0.05,0.063-0.095,0.13-0.143,0.195c-0.128,0.172-0.249,0.347-0.36,0.527
			c-0.043,0.069-0.083,0.139-0.124,0.21c-0.112,0.194-0.213,0.392-0.306,0.593c-0.027,0.059-0.057,0.118-0.082,0.178
			c-0.119,0.278-0.225,0.559-0.309,0.846l-31.119,104.21L6.062,414.627C2.021,418.669,0,423.979,0,429.289s2.021,10.62,6.062,14.662
			l6.743,6.743l-0.566,0.566c-13.371,13.372-13.371,35.129,0,48.501c6.687,6.686,15.468,10.028,24.251,10.028
			c8.783,0,17.564-3.343,24.251-10.028l0.567-0.567l6.743,6.743c0.505,0.505,1.03,0.979,1.573,1.421
			C73.42,510.453,78.065,512,82.711,512c1.88,0,3.758-0.267,5.582-0.774c3.327-0.924,6.469-2.678,9.08-5.289l39.188-39.188
			c2.93-2.931,2.93-7.682,0-10.614c-2.931-2.929-7.682-2.929-10.614,0l-10.097,10.097l-70.084-70.084l157.876-157.876l70.085,70.083
			L151.301,430.781c-2.93,2.931-2.93,7.682,0,10.614c1.466,1.465,3.387,2.198,5.307,2.198c1.92,0,3.841-0.733,5.307-2.198
			l126.392-126.392l104.212-31.119c0.286-0.084,0.566-0.189,0.842-0.308c0.061-0.026,0.12-0.056,0.181-0.084
			c0.201-0.092,0.398-0.194,0.591-0.305c0.07-0.04,0.139-0.081,0.208-0.123c0.183-0.113,0.36-0.235,0.535-0.365
			c0.062-0.046,0.125-0.088,0.186-0.136c0.224-0.178,0.442-0.366,0.649-0.573l27.924-27.924c2.866-2.866,4.444-6.677,4.444-10.73
			C428.079,239.284,426.501,235.473,423.635,232.607z M50.126,489.148c-7.518,7.52-19.756,7.52-27.274,0
			c-7.52-7.519-7.52-19.755,0-27.274l0.566-0.566l27.274,27.273L50.126,489.148z M16.944,433.605
			c0.136,0.136,0.271,0.271,0.268,0.268C17.209,433.87,17.076,433.738,16.944,433.605z M105.238,476.846l-18.476,18.477
			c-2.233,2.231-5.866,2.233-8.099,0l-61.987-61.986c-0.558-0.558-0.977-1.204-1.256-1.893c-0.279-0.69-0.419-1.423-0.419-2.156
			c0-1.466,0.558-2.933,1.675-4.049l18.477-18.477L105.238,476.846z M413.02,243.453l-22.616,22.617L290.163,165.83
			c-2.931-2.929-7.682-2.929-10.614,0c-2.93,2.931-2.93,7.682,0,10.614l96.651,96.651l-89.717,26.79l-74.368-74.367l26.791-89.718
			l15.953,15.953c1.466,1.466,3.386,2.199,5.307,2.199c1.92,0,3.841-0.733,5.306-2.198c2.931-2.93,2.931-7.682,0.001-10.613
			l-19.544-19.545l22.618-22.617c0.063-0.064,0.17-0.064,0.233,0l144.24,144.242C413.085,243.284,413.085,243.39,413.02,243.453z"/>
	</g>
</g>
<g>
	<g>
		<path d="M221.913,290.313c-12.976-12.974-34.09-12.974-47.069,0.001c-12.976,12.977-12.976,34.092,0,47.069
			c6.489,6.488,15.012,9.732,23.535,9.732c8.524,0,17.046-3.244,23.534-9.733c6.287-6.286,9.749-14.644,9.749-23.534
			C231.662,304.958,228.2,296.599,221.913,290.313z M211.302,326.769c0,0,0,0-0.001,0c-7.124,7.125-18.719,7.123-25.843-0.001
			c-7.125-7.124-7.125-18.717-0.001-25.842c3.564-3.563,8.242-5.344,12.923-5.344c4.679,0,9.359,1.782,12.921,5.344
			c3.452,3.451,5.353,8.04,5.353,12.922C216.654,318.729,214.753,323.318,211.302,326.769z"/>
	</g>
</g>
<g>
</g>
<g>
</g>
<g>
</g>
<g>
</g>
<g>
</g>
<g>
</g>
<g>
</g>
<g>
</g>
<g>
</g>
<g>
</g>
<g>
</g>
<g>
</g>
<g>
</g>
<g>
</g>
<g>
</g>
</svg>
