<svg id="Capa_1" enable-background="new 0 0 511.923 511.923" height="512" viewBox="0 0 511.923 511.923" width="512" xmlns="http://www.w3.org/2000/svg"><g><g><g><path d="m276.91 496.923h-198.423c-1.688 0-3.246-.685-4.388-1.928s-1.691-2.854-1.547-4.536l22.259-260.464c.353-4.127-2.707-7.759-6.834-8.111-4.134-.353-7.759 2.708-8.111 6.834l-22.26 260.464c-.499 5.831 1.486 11.647 5.444 15.958s9.584 6.783 15.437 6.783h198.423c4.142 0 7.5-3.358 7.5-7.5s-3.358-7.5-7.5-7.5z"/><path d="m454.316 489.182-30.211-353.511c-.934-10.93-9.91-19.172-20.88-19.172h-67.428v-36.663c0-44.022-35.814-79.836-79.836-79.836s-79.835 35.814-79.835 79.836v36.663h-67.428c-10.97 0-19.947 8.242-20.88 19.173l-4.954 58.027c-.353 4.127 2.708 7.758 6.835 8.11 4.122.352 7.758-2.708 8.11-6.834l4.954-58.027c.266-3.106 2.817-5.449 5.935-5.449h67.428v16.607c-10.139 3.194-17.513 12.683-17.513 23.863 0 13.792 11.221 25.013 25.013 25.013s25.013-11.221 25.013-25.013c0-11.18-7.374-20.669-17.513-23.863v-16.607h129.671v16.607c-10.139 3.194-17.513 12.683-17.513 23.863 0 13.792 11.221 25.013 25.013 25.013s25.013-11.221 25.013-25.013c0-11.18-7.374-20.669-17.513-23.863v-16.607h67.428c3.118 0 5.669 2.342 5.935 5.449l30.211 353.511c.144 1.682-.406 3.292-1.547 4.536-1.142 1.244-2.7 1.928-4.388 1.928h-121.475c-4.142 0-7.5 3.358-7.5 7.5s3.358 7.5 7.5 7.5h121.475c5.852 0 11.479-2.472 15.437-6.783s5.942-10.127 5.443-15.958zm-260.677-317.214c0 5.521-4.492 10.013-10.013 10.013s-10.013-4.492-10.013-10.013 4.492-10.013 10.013-10.013c5.521.001 10.013 4.492 10.013 10.013zm-2.513-55.469v-36.663c0-35.75 29.085-64.836 64.835-64.836s64.835 29.085 64.835 64.836v36.663zm147.184 55.469c0 5.521-4.492 10.013-10.013 10.013s-10.013-4.492-10.013-10.013 4.492-10.013 10.013-10.013c5.521.001 10.013 4.492 10.013 10.013z"/><path d="m312.207 282.128c4.456-4.344 6.03-10.72 4.106-16.639-1.923-5.918-6.944-10.151-13.102-11.046l-21.952-3.19c-.401-.059-.747-.31-.926-.673l-9.817-19.891c-2.754-5.581-8.332-9.047-14.555-9.047s-11.8 3.467-14.555 9.047l-9.816 19.891c-.18.364-.526.615-.927.674l-21.951 3.19c-6.158.895-11.179 5.127-13.102 11.046s-.35 12.294 4.107 16.639l15.884 15.483c.29.283.422.69.354 1.09l-3.75 21.862c-1.052 6.133 1.421 12.216 6.456 15.874 5.034 3.658 11.583 4.132 17.094 1.236l19.634-10.322c.358-.188.787-.189 1.145 0l19.634 10.322c2.396 1.259 4.988 1.882 7.568 1.881 3.352 0 6.681-1.05 9.526-3.118 5.035-3.658 7.508-9.741 6.456-15.874l-3.75-21.863c-.068-.399.064-.807.354-1.089zm-26.355 4.742c-3.826 3.73-5.571 9.101-4.667 14.366l3.75 21.863c.032.187.129.753-.489 1.203-.62.45-1.129.182-1.296.094l-19.633-10.321c-2.365-1.244-4.959-1.865-7.554-1.865s-5.188.622-7.553 1.865l-19.633 10.322c-.168.088-.677.356-1.297-.094-.619-.45-.521-1.017-.489-1.204l3.75-21.862c.903-5.266-.842-10.637-4.668-14.367l-15.884-15.483c-.136-.132-.548-.534-.312-1.262s.806-.811.994-.838l21.951-3.19c5.287-.768 9.855-4.087 12.221-8.878l9.817-19.891c.083-.17.338-.686 1.104-.686s1.02.516 1.104.686l9.817 19.892c2.365 4.791 6.934 8.11 12.22 8.878l21.951 3.19c.188.027.757.11.994.838s-.176 1.13-.311 1.262z"/><path d="m185.625 362.699c-1.911 3.675-.518 8.184 3.157 10.095.8.439 19.617 11.167 21.933 46.451.26 3.966 3.558 7.009 7.477 7.009.165 0 .332-.006.499-.017 4.133-.271 7.264-3.842 6.993-7.975-2.901-44.202-28.805-58.165-29.907-58.737-3.677-1.912-8.24-.501-10.152 3.174z"/><path d="m323.131 372.8c3.627-1.93 5.03-6.428 3.129-10.081-1.91-3.675-6.44-5.105-10.114-3.193-1.102.573-27.006 14.536-29.907 58.737-.271 4.133 2.859 7.704 6.993 7.975.167.011.333.017.499.017 3.918 0 7.216-3.043 7.477-7.009 2.307-35.156 20.995-45.933 21.923-46.446z"/><path d="m248.461 359.828v58.926c0 4.142 3.358 7.5 7.5 7.5s7.5-3.358 7.5-7.5v-58.926c0-4.142-3.358-7.5-7.5-7.5s-7.5 3.358-7.5 7.5z"/></g></g></g></svg>